<svg width="40" height="40" viewBox="0 0 10 10" fill="none" xmlns="http://www.w3.org/2000/svg">
    <g transform="translate(-2.5,-3)">
    <path d="M8.66666 10.6667H4.66666V11.3333H8.66666V10.6667Z" fill="#EFEFEF"/>
    <path d="M6.675 5.39999V4.67082H4.6875V5.39999H5.24583V7.91666H4.6875V8.64583H6.675V7.91666H6.12083V5.39999H6.675Z"
          fill="#EFEFEF"/>
    <path d="M8.58326 8.70416C8.27076 8.70416 8.01243 8.64583 7.8041 8.52916C7.59576 8.41249 7.42076 8.27083 7.28326 8.10833L7.83326 7.49583C7.94576 7.62083 8.06243 7.71666 8.17493 7.78749C8.2916 7.85833 8.4166 7.89166 8.55826 7.89166C8.72493 7.89166 8.8541 7.84166 8.94993 7.73333C9.04576 7.62916 9.0916 7.46249 9.0916 7.22916V4.67082H9.98743V7.27083C9.98743 7.50833 9.9541 7.71666 9.8916 7.89166C9.8291 8.06666 9.73326 8.21249 9.61243 8.33333C9.4916 8.45416 9.3416 8.54583 9.1666 8.60833C8.99576 8.67083 8.79993 8.70416 8.58326 8.70416Z"
          fill="#EFEFEF"/>
    </g>
</svg>
